<svg width="32" height="33" viewBox="0 0 32 33" fill="none" xmlns="http://www.w3.org/2000/svg">
<path d="M27.0615 11.836C27.062 11.1767 26.8017 10.5439 26.3374 10.0758L22.8668 6.54272C22.3987 6.0784 21.7659 5.81811 21.1065 5.81863C20.7779 5.81673 20.4522 5.87972 20.148 6.00397C19.8438 6.12822 19.5671 6.31131 19.3338 6.54272L0.732291 25.0818C0.500143 25.3137 0.315979 25.589 0.190327 25.8922C0.0646749 26.1953 0 26.5202 0 26.8483C0 27.1764 0.0646749 27.5013 0.190327 27.8044C0.315979 28.1075 0.500143 28.3829 0.732291 28.6148L4.26532 32.1478C4.49721 32.38 4.77259 32.5642 5.0757 32.6898C5.37881 32.8155 5.70372 32.8801 6.03184 32.8801C6.35996 32.8801 6.68487 32.8155 6.98798 32.6898C7.29109 32.5642 7.56647 32.38 7.79836 32.1478L26.3374 13.6088C26.5688 13.3755 26.7519 13.0988 26.8762 12.7946C27.0004 12.4904 27.0634 12.1646 27.0615 11.836ZM19.2713 17.1418L15.7383 13.6088L16.6247 12.7224L20.1577 16.2554L19.2713 17.1418ZM6.03808 30.3751L2.50505 26.8545L13.978 15.3691L17.5111 18.9021L6.03808 30.3751ZM21.918 14.4952L18.385 10.9621L21.0441 8.31548L24.5647 11.836L21.918 14.4952ZM29.034 17.9658C28.8001 17.7333 28.4837 17.6027 28.1539 17.6027C27.8241 17.6027 27.5076 17.7333 27.2737 17.9658L26.3873 18.8522L25.501 17.9658C25.2671 17.7333 24.9506 17.6027 24.6208 17.6027C24.291 17.6027 23.9746 17.7333 23.7407 17.9658C23.6237 18.0818 23.5308 18.2199 23.4674 18.372C23.404 18.5242 23.3714 18.6873 23.3714 18.8522C23.3714 19.017 23.404 19.1801 23.4674 19.3323C23.5308 19.4844 23.6237 19.6225 23.7407 19.7385L24.6271 20.6124L23.7407 21.4988C23.5646 21.6734 23.4446 21.8965 23.3958 22.1396C23.347 22.3828 23.3717 22.6349 23.4668 22.8639C23.5619 23.0929 23.7231 23.2885 23.9297 23.4255C24.1363 23.5626 24.3791 23.635 24.6271 23.6336C24.9564 23.6289 25.2705 23.4943 25.501 23.2591L26.3873 22.3852L27.2737 23.2591C27.5076 23.4916 27.8241 23.6221 28.1539 23.6221C28.4837 23.6221 28.8001 23.4916 29.034 23.2591C29.2665 23.0252 29.397 22.7088 29.397 22.3789C29.397 22.0491 29.2665 21.7327 29.034 21.4988L28.1601 20.6124L29.034 19.7385C29.151 19.6225 29.2439 19.4844 29.3073 19.3323C29.3707 19.1801 29.4033 19.017 29.4033 18.8522C29.4033 18.6873 29.3707 18.5242 29.3073 18.372C29.2439 18.2199 29.151 18.0818 29.034 17.9658ZM13.0917 5.65634C13.2073 5.7743 13.3452 5.86814 13.4973 5.93243C13.6495 5.99672 13.8129 6.03018 13.978 6.03086C14.1432 6.03018 14.3066 5.99672 14.4588 5.93243C14.6109 5.86814 14.7488 5.7743 14.8644 5.65634L15.7383 4.78244L16.6247 5.65634C16.7403 5.7743 16.8782 5.86814 17.0303 5.93243C17.1825 5.99672 17.3459 6.03018 17.5111 6.03086C17.8404 6.02617 18.1545 5.89156 18.385 5.65634C18.6175 5.42243 18.748 5.10602 18.748 4.7762C18.748 4.44639 18.6175 4.12997 18.385 3.89606L17.5111 3.00969L18.385 2.13579C18.502 2.01973 18.5949 1.88166 18.6582 1.72952C18.7216 1.57739 18.7542 1.41422 18.7542 1.24941C18.7542 1.0846 18.7216 0.921429 18.6582 0.769297C18.5949 0.617166 18.502 0.479089 18.385 0.363032C18.1511 0.130512 17.8346 0 17.5048 0C17.175 0 16.8586 0.130512 16.6247 0.363032L15.7383 1.27438L14.8644 0.388C14.748 0.271599 14.6098 0.179265 14.4577 0.116269C14.3057 0.0532734 14.1427 0.02085 13.978 0.02085C13.8134 0.02085 13.6504 0.0532734 13.4983 0.116269C13.3462 0.179265 13.2081 0.271599 13.0917 0.388C12.8566 0.623083 12.7245 0.941923 12.7245 1.27438C12.7245 1.60684 12.8566 1.92568 13.0917 2.16076L13.978 3.03465L13.0917 3.92103C12.8666 4.15382 12.7409 4.46492 12.7409 4.78869C12.7409 5.11245 12.8666 5.42355 13.0917 5.65634ZM30.7443 5.65634L31.6307 4.78244C31.7477 4.66639 31.8406 4.52831 31.904 4.37618C31.9674 4.22405 32 4.06087 32 3.89606C32 3.73126 31.9674 3.56808 31.904 3.41595C31.8406 3.26382 31.7477 3.12574 31.6307 3.00969C31.3968 2.77717 31.0804 2.64665 30.7506 2.64665C30.4208 2.64665 30.1044 2.77717 29.8704 3.00969L28.9841 3.89606L28.0977 3.00969C27.8638 2.77717 27.5474 2.64665 27.2176 2.64665C26.8877 2.64665 26.5713 2.77717 26.3374 3.00969C26.2204 3.12574 26.1275 3.26382 26.0641 3.41595C26.0008 3.56808 25.9681 3.73126 25.9681 3.89606C25.9681 4.06087 26.0008 4.22405 26.0641 4.37618C26.1275 4.52831 26.2204 4.66639 26.3374 4.78244L27.2238 5.65634L26.3374 6.54272C26.1023 6.77614 25.9696 7.0934 25.9684 7.42468C25.9673 7.75597 26.0977 8.07415 26.3312 8.30923C26.5646 8.54432 26.8818 8.67704 27.2131 8.67821C27.5444 8.67938 27.8626 8.5489 28.0977 8.31548L28.9841 7.4291L29.8704 8.31548C30.1124 8.50369 30.4152 8.59627 30.7211 8.57558C31.027 8.55489 31.3146 8.42238 31.529 8.2033C31.7435 7.98422 31.8698 7.69389 31.884 7.38764C31.8981 7.08139 31.7991 6.78064 31.6058 6.54272L30.7443 5.65634Z" fill="#e0e3b1ff"/>
</svg>
