<svg width="40" height="41" viewBox="0 0 40 41" fill="none" xmlns="http://www.w3.org/2000/svg">
<path d="M38.2682 19.6699L33.1989 17.7918C32.7668 15.8804 31.6865 14.7835 31.6865 14.7835C31.0397 14.1357 30.2715 13.6218 29.4259 13.2712C28.5803 12.9205 27.6739 12.7401 26.7585 12.7401C25.8431 12.7401 24.9367 12.9205 24.0911 13.2712C23.2455 13.6218 22.4774 14.1357 21.8306 14.7835L19.3707 17.2433L8.35137 5.54248C6.68932 12.1907 8.35137 18.8388 12.4234 24.1906L3.36523 32.9662C3.36523 32.9662 18.1408 36.2903 26.7502 29.559C31.3374 25.969 32.3679 23.8748 33.0161 21.6643L38.2682 19.6699ZM29.476 20.0355C28.8278 20.6837 27.7641 20.6837 27.1159 20.0355C26.9618 19.8818 26.8395 19.6991 26.7561 19.498C26.6727 19.297 26.6298 19.0814 26.6298 18.8638C26.6298 18.6461 26.6727 18.4306 26.7561 18.2295C26.8395 18.0284 26.9618 17.8458 27.1159 17.692C27.7641 17.0438 28.8278 17.0438 29.476 17.692C30.1242 18.3402 30.1242 19.3873 29.476 20.0355Z" fill="#ECA15B"/>
</svg>
