<svg width="32" height="32" viewBox="0 0 32 32" fill="none" xmlns="http://www.w3.org/2000/svg">
<path d="M9.33534 10.4954C9.1956 11.9858 9.09754 14.6236 9.97762 15.7464C9.97762 15.7464 9.56332 12.8488 13.2773 9.21325C14.7727 7.74973 15.1183 5.75915 14.5962 4.26622C14.2995 3.42047 13.7578 2.72181 13.2871 2.23397C13.0125 1.94715 13.2233 1.47402 13.6229 1.49118C16.0401 1.59904 19.9575 2.27074 21.622 6.44801C22.3525 8.2817 22.4065 10.1767 22.0584 12.1035C21.8377 13.3341 21.0533 16.07 22.8428 16.4058C24.12 16.646 24.7378 15.6311 25.0148 14.9006C25.13 14.5966 25.5296 14.5206 25.7454 14.7633C27.9026 17.2172 28.0865 20.1075 27.6403 22.5957C26.7774 27.4055 21.9064 30.9061 17.0672 30.9061C11.0219 30.9061 6.20973 27.4471 4.96195 21.1861C4.4594 18.6587 4.71435 13.6577 8.61216 10.1276C8.90143 9.86288 9.37456 10.0982 9.33534 10.4954Z" fill="url(#paint0_radial_193_648)"/>
<path d="M19.2766 19.4898C17.0482 16.6216 18.046 13.3489 18.5926 12.0447C18.6662 11.8731 18.4701 11.7113 18.3156 11.8167C17.3571 12.4688 15.3935 14.0034 14.4791 16.1631C13.2411 19.0828 13.3294 20.512 14.0624 22.2575C14.5036 23.3091 13.9913 23.5322 13.7339 23.5714C13.4838 23.6107 13.2534 23.444 13.0695 23.2699C12.5407 22.762 12.1638 22.1169 11.9811 21.4068C11.9419 21.2548 11.7433 21.2131 11.6526 21.3382C10.9662 22.2869 10.6107 23.8092 10.5936 24.8854C10.5396 28.212 13.2877 30.9086 16.6119 30.9086C20.8014 30.9086 23.8535 26.2754 21.4461 22.4021C20.7475 21.2744 20.0905 20.5365 19.2766 19.4898Z" fill="url(#paint1_radial_193_648)"/>
<defs>
<radialGradient id="paint0_radial_193_648" cx="0" cy="0" r="1" gradientTransform="matrix(-17.3041 -0.0750996 -0.123378 28.3925 15.8699 30.9824)" gradientUnits="userSpaceOnUse">
<stop offset="0.314" stop-color="#FF9800"/>
<stop offset="0.662" stop-color="#FF6D00"/>
<stop offset="0.972" stop-color="#F44336"/>
</radialGradient>
<radialGradient id="paint1_radial_193_648" cx="0" cy="0" r="1" gradientTransform="matrix(-0.182875 18.1046 13.6251 0.137609 16.8423 13.7628)" gradientUnits="userSpaceOnUse">
<stop offset="0.214" stop-color="#FFF176"/>
<stop offset="0.328" stop-color="#FFF27D"/>
<stop offset="0.487" stop-color="#FFF48F"/>
<stop offset="0.672" stop-color="#FFF7AD"/>
<stop offset="0.793" stop-color="#FFF9C4"/>
<stop offset="0.822" stop-color="#FFF8BD" stop-opacity="0.804"/>
<stop offset="0.863" stop-color="#FFF6AB" stop-opacity="0.529"/>
<stop offset="0.91" stop-color="#FFF38D" stop-opacity="0.209"/>
<stop offset="0.941" stop-color="#FFF176" stop-opacity="0"/>
</radialGradient>
</defs>
</svg>
