<svg width="40" height="40" viewBox="0 0 40 40" fill="none" xmlns="http://www.w3.org/2000/svg">
<path d="M38.6422 19.4937C38.5873 19.3702 37.2642 16.435 34.3214 13.4919C30.402 9.57209 25.4496 7.50009 20 7.50009C18.8486 7.49881 17.6992 7.59251 16.5632 7.78025C16.3417 7.81723 16.1342 7.91322 15.9626 8.05812C15.791 8.20302 15.6616 8.39147 15.588 8.60368C15.5144 8.81588 15.4994 9.04399 15.5444 9.26402C15.5895 9.48405 15.693 9.68788 15.8441 9.85407L31.6708 27.2634C31.8928 27.5075 32.2022 27.654 32.5317 27.6709C32.8612 27.6878 33.1841 27.5737 33.4298 27.3536C36.9943 24.1609 38.5766 20.6567 38.6422 20.509C38.7132 20.3492 38.7499 20.1762 38.7499 20.0013C38.7499 19.8264 38.7132 19.6535 38.6422 19.4937ZM8.42495 5.40918C8.20193 5.16386 7.89058 5.01718 7.55941 5.00142C7.22824 4.98565 6.90437 5.10208 6.65905 5.32511C6.41373 5.54813 6.26705 5.85947 6.25128 6.19064C6.23552 6.52182 6.35195 6.84569 6.57497 7.09101L9.58141 10.398C3.90626 13.881 1.46637 19.2493 1.35769 19.4936C1.28669 19.6535 1.25 19.8264 1.25 20.0013C1.25 20.1762 1.28669 20.3491 1.35769 20.509C1.41262 20.6326 2.73586 23.5671 5.67867 26.5096C9.59805 30.4285 14.5503 32.5001 20 32.5001C22.8008 32.5164 25.5734 31.9395 28.1352 30.8073L31.575 34.591C31.798 34.8363 32.1093 34.983 32.4405 34.9988C32.7717 35.0145 33.0956 34.8981 33.3409 34.6751C33.5862 34.452 33.7329 34.1407 33.7486 33.8095C33.7644 33.4784 33.648 33.1545 33.4249 32.9092L8.42495 5.40918ZM20 25.6252C18.9719 25.6256 17.9633 25.3441 17.084 24.8113C16.2047 24.2786 15.4883 23.5149 15.0128 22.6034C14.5372 21.6919 14.3206 20.6675 14.3866 19.6415C14.4525 18.6156 14.7985 17.6273 15.387 16.7842L22.7627 24.8975C21.9203 25.3752 20.9683 25.626 20 25.6252Z" fill="#FFD089"/>
</svg>
