<svg width="40" height="40" viewBox="0 0 40 40" fill="none" xmlns="http://www.w3.org/2000/svg">
<path d="M20 31C5 31 0 18.5 0 18.5C0 18.5 5 6 20 6C35 6 40 18.5 40 18.5C40 18.5 35 31 20 31ZM20 11C15.8575 11 12.5 14.3575 12.5 18.5C12.5 22.6425 15.8575 26 20 26C24.1425 26 27.5 22.6425 27.5 18.5C27.5 14.3575 24.1425 11 20 11ZM20 23.5C17.24 23.5 15 21.26 15 18.5H20L16.465 14.965C16.9284 14.4996 17.4793 14.1305 18.086 13.879C18.6927 13.6276 19.3432 13.4988 20 13.5C22.76 13.5 25 15.74 25 18.5C25 21.26 22.76 23.5 20 23.5Z" fill="#FFD089"/>
</svg>
