<svg width="43" height="42" viewBox="0 0 43 42" fill="none" xmlns="http://www.w3.org/2000/svg">
<path fill-rule="evenodd" clip-rule="evenodd" d="M21.5506 26.0776C21.7907 26.3179 21.9255 26.6438 21.9255 26.9835C21.9255 27.3232 21.7907 27.6491 21.5506 27.8894L18.1319 31.3081C18.0146 31.4341 17.873 31.5351 17.7158 31.6051C17.5585 31.6752 17.3888 31.7129 17.2166 31.7159C17.0445 31.719 16.8735 31.6873 16.7139 31.6228C16.5542 31.5583 16.4092 31.4624 16.2875 31.3406C16.1658 31.2189 16.0698 31.0739 16.0053 30.9143C15.9408 30.7546 15.9092 30.5837 15.9122 30.4115C15.9153 30.2394 15.9529 30.0696 16.023 29.9124C16.0931 29.7551 16.1941 29.6136 16.32 29.4962L19.7387 26.0776C19.9791 25.8375 20.3049 25.7026 20.6446 25.7026C20.9844 25.7026 21.3102 25.8375 21.5506 26.0776ZM29.2426 26.0776C29.4826 26.3179 29.6175 26.6438 29.6175 26.9835C29.6175 27.3232 29.4826 27.6491 29.2426 27.8894L25.8239 31.3081C25.7065 31.4341 25.565 31.5351 25.4077 31.6051C25.2505 31.6752 25.0807 31.7129 24.9086 31.7159C24.7365 31.719 24.5655 31.6873 24.4058 31.6228C24.2462 31.5583 24.1012 31.4624 23.9795 31.3406C23.8577 31.2189 23.7618 31.0739 23.6973 30.9143C23.6328 30.7546 23.6011 30.5837 23.6042 30.4115C23.6072 30.2394 23.6449 30.0696 23.715 29.9124C23.785 29.7551 23.8861 29.6136 24.012 29.4962L27.4307 26.0776C27.671 25.8375 27.9969 25.7026 28.3366 25.7026C28.6763 25.7026 29.0022 25.8375 29.2426 26.0776ZM14.7133 32.0602C14.9534 32.3006 15.0882 32.6264 15.0882 32.9661C15.0882 33.3059 14.9534 33.6317 14.7133 33.8721L11.2946 37.2907C11.0516 37.5172 10.7302 37.6405 10.3981 37.6346C10.0659 37.6288 9.74904 37.4942 9.51416 37.2593C9.27928 37.0244 9.14473 36.7076 9.13887 36.3754C9.13301 36.0433 9.25629 35.7219 9.48274 35.4789L12.9014 32.0602C13.1418 31.8201 13.4676 31.6853 13.8073 31.6853C14.1471 31.6853 14.4729 31.8201 14.7133 32.0602ZM30.9519 32.0602C31.192 32.3006 31.3268 32.6264 31.3268 32.9661C31.3268 33.3059 31.192 33.6317 30.9519 33.8721L27.5332 37.2907C27.4159 37.4167 27.2743 37.5177 27.1171 37.5878C26.9598 37.6579 26.7901 37.6955 26.6179 37.6986C26.4458 37.7016 26.2748 37.6699 26.1152 37.6055C25.9555 37.541 25.8105 37.445 25.6888 37.3233C25.5671 37.2015 25.4711 37.0565 25.4066 36.8969C25.3421 36.7373 25.3105 36.5663 25.3135 36.3942C25.3165 36.222 25.3542 36.0523 25.4243 35.895C25.4944 35.7378 25.5954 35.5962 25.7213 35.4789L29.14 32.0602C29.3804 31.8201 29.7062 31.6853 30.0459 31.6853C30.3857 31.6853 30.7115 31.8201 30.9519 32.0602ZM22.4052 33.7695C22.6453 34.0099 22.7802 34.3357 22.7802 34.6755C22.7802 35.0152 22.6453 35.341 22.4052 35.5814L18.9866 39.0001C18.8692 39.126 18.7277 39.227 18.5704 39.2971C18.4132 39.3672 18.2434 39.4049 18.0713 39.4079C17.8992 39.4109 17.7282 39.3793 17.5685 39.3148C17.4089 39.2503 17.2639 39.1543 17.1422 39.0326C17.0204 38.9109 16.9245 38.7659 16.86 38.6062C16.7955 38.4466 16.7638 38.2756 16.7669 38.1035C16.7699 37.9314 16.8076 37.7616 16.8777 37.6043C16.9477 37.4471 17.0488 37.3055 17.1747 37.1882L20.5934 33.7695C20.8337 33.5295 21.1596 33.3946 21.4993 33.3946C21.839 33.3946 22.1649 33.5295 22.4052 33.7695Z" fill="#ECA15B"/>
<path d="M33.6767 31.6925C33.4898 31.1554 33.1855 30.6667 32.786 30.262C32.3866 29.8572 31.902 29.5465 31.3675 29.3524C31.9727 28.5809 32.2604 27.6073 32.1717 26.6307C32.083 25.6541 31.6246 24.7483 30.8903 24.0984C30.1559 23.4486 29.2011 23.1038 28.221 23.1345C27.2408 23.1652 26.3095 23.5692 25.6173 24.2637L24.2464 25.6329C24.0205 25.0303 23.6469 24.494 23.16 24.0731C22.6731 23.6523 22.0883 23.3604 21.4593 23.2241C20.8303 23.0879 20.1772 23.1117 19.5597 23.2933C18.9423 23.4749 18.3803 23.8086 17.9253 24.2637L14.5067 27.6824C14.0989 28.0888 13.7881 28.5819 13.5973 29.1251C12.6845 29.1763 11.7854 29.549 11.088 30.2464L8.92058 32.4138C6.27112 31.325 4.40625 28.7405 4.40625 25.7269C4.40625 21.7271 7.68645 18.4862 11.7324 18.4862C12.219 18.4874 12.6919 18.5329 13.1512 18.623C12.7505 17.5503 12.5455 16.4144 12.5461 15.2693C12.5461 9.93788 16.9185 5.6167 22.3131 5.6167C27.3386 5.6167 31.4768 9.36696 32.0221 14.189C35.8442 15.4966 38.5928 19.0879 38.5928 23.3134C38.5928 26.8995 36.6134 30.0293 33.6767 31.6925Z" fill="#ECA15B"/>
<path d="M21.5507 26.0775C21.7908 26.3178 21.9256 26.6437 21.9256 26.9834C21.9256 27.3231 21.7908 27.649 21.5507 27.8894L18.132 31.308C18.0135 31.4277 17.8724 31.5227 17.7169 31.5875C17.5614 31.6524 17.3946 31.6858 17.2261 31.6858C17.0576 31.6858 16.8908 31.6524 16.7353 31.5875C16.5798 31.5227 16.4387 31.4277 16.3202 31.308C16.2005 31.1894 16.1055 31.0483 16.0406 30.8928C15.9758 30.7373 15.9424 30.5705 15.9424 30.4021C15.9424 30.2336 15.9758 30.0668 16.0406 29.9113C16.1055 29.7558 16.2005 29.6147 16.3202 29.4961L19.7388 26.0775C19.9792 25.8374 20.305 25.7025 20.6448 25.7025C20.9845 25.7025 21.3103 25.8374 21.5507 26.0775ZM27.4308 26.0775L24.0121 29.4961C23.8862 29.6135 23.7851 29.755 23.7151 29.9123C23.645 30.0695 23.6073 30.2393 23.6043 30.4114C23.6013 30.5836 23.6329 30.7545 23.6974 30.9142C23.7619 31.0738 23.8578 31.2188 23.9796 31.3405C24.1013 31.4623 24.2463 31.5582 24.406 31.6227C24.5656 31.6872 24.7366 31.7189 24.9087 31.7158C25.0808 31.7128 25.2506 31.6751 25.4079 31.605C25.5651 31.535 25.7066 31.434 25.824 31.308L29.2427 27.8894C29.3686 27.772 29.4696 27.6305 29.5397 27.4732C29.6098 27.3159 29.6475 27.1462 29.6505 26.974C29.6535 26.8019 29.6219 26.6309 29.5574 26.4713C29.4929 26.3117 29.3969 26.1667 29.2752 26.0449C29.1535 25.9232 29.0085 25.8272 28.8488 25.7627C28.6892 25.6983 28.5182 25.6666 28.3461 25.6696C28.1739 25.6727 28.0042 25.7103 27.8469 25.7804C27.6897 25.8505 27.5481 25.9515 27.4308 26.0775Z" fill="#ECA15B"/>
</svg>
