<svg width="34" height="36" viewBox="0 0 34 36" fill="none" xmlns="http://www.w3.org/2000/svg">
<path d="M10.7538 27.2059C10.4386 31.7471 13.8391 35.2347 17.645 35.2347C21.4509 35.2347 24.8093 31.495 24.5362 27.2059C24.2544 22.7807 17.6449 14.3511 17.6449 14.3511C17.6449 14.3511 11.0608 22.7824 10.7538 27.2059Z" fill="url(#paint0_linear_194_313)"/>
<path d="M23.5584 12.4714C23.3523 15.4409 25.5759 17.7215 28.0646 17.7215C30.5532 17.7215 32.7495 15.276 32.5709 12.4714C32.3866 9.57767 28.0646 4.06543 28.0646 4.06543C28.0646 4.06543 23.7592 9.57871 23.5584 12.4714Z" fill="url(#paint1_linear_194_313)"/>
<path d="M1.43499 11.0444C1.17709 14.762 3.96069 17.6171 7.07635 17.6171C10.192 17.6171 12.9413 14.5556 12.7177 11.0444C12.487 7.42177 7.07635 0.520996 7.07635 0.520996C7.07635 0.520996 1.68629 7.42316 1.43499 11.0444Z" fill="url(#paint2_linear_194_313)"/>
<defs>
<linearGradient id="paint0_linear_194_313" x1="23.5" y1="35" x2="15.5" y2="21.5" gradientUnits="userSpaceOnUse">
<stop stop-color="#092F6E"/>
<stop offset="0.316212" stop-color="#0A367F"/>
<stop offset="0.479459" stop-color="#0B3A88"/>
<stop offset="0.647054" stop-color="#0E48A9"/>
<stop offset="1" stop-color="#115BD4"/>
</linearGradient>
<linearGradient id="paint1_linear_194_313" x1="25.5" y1="7.5" x2="32" y2="19" gradientUnits="userSpaceOnUse">
<stop stop-color="#6A99E8"/>
<stop offset="0.312606" stop-color="#618CD4"/>
<stop offset="0.591254" stop-color="#5F8AD0"/>
<stop offset="0.700831" stop-color="#5D87CC"/>
<stop offset="0.777627" stop-color="#5F89CF"/>
<stop offset="0.965821" stop-color="#557AB9"/>
<stop offset="0.998299" stop-color="#557AB9"/>
</linearGradient>
<linearGradient id="paint2_linear_194_313" x1="13.3283" y1="18" x2="3.24853" y2="1.86191" gradientUnits="userSpaceOnUse">
<stop stop-color="#004753"/>
<stop offset="0.138248" stop-color="#004F5C"/>
<stop offset="0.296249" stop-color="#005664"/>
<stop offset="0.498903" stop-color="#005867"/>
<stop offset="1" stop-color="#009FB9"/>
</linearGradient>
</defs>
</svg>
