<svg width="44" height="44" viewBox="0 0 44 44" fill="none" xmlns="http://www.w3.org/2000/svg">
<path d="M22 5.5V39.1875" stroke="#FFD089" stroke-width="2" stroke-miterlimit="10" stroke-linecap="round"/>
<path d="M18.5625 5.5L22 8.9375L25.4375 5.5" stroke="#34D0FF" stroke-width="2" stroke-miterlimit="10" stroke-linecap="round"/>
<path d="M18.5625 11L22 14.4375L25.4375 11" stroke="#34D0FF" stroke-width="2" stroke-miterlimit="10" stroke-linecap="round"/>
<path d="M25.4375 39.1875L22 35.75L18.5625 39.1875" stroke="#34D0FF" stroke-width="2" stroke-miterlimit="10" stroke-linecap="round"/>
<path d="M25.4375 33.6875L22 30.25L18.5625 33.6875" stroke="#34D0FF" stroke-width="2" stroke-miterlimit="10" stroke-linecap="round"/>
<path d="M22 5.5V39.1875" stroke="#FFD089" stroke-width="2" stroke-miterlimit="10" stroke-linecap="round"/>
<path d="M18.5625 5.5L22 8.9375L25.4375 5.5" stroke="#34D0FF" stroke-width="2" stroke-miterlimit="10" stroke-linecap="round"/>
<path d="M18.5625 11L22 14.4375L25.4375 11" stroke="#34D0FF" stroke-width="2" stroke-miterlimit="10" stroke-linecap="round"/>
<path d="M25.4375 39.1875L22 35.75L18.5625 39.1875" stroke="#34D0FF" stroke-width="2" stroke-miterlimit="10" stroke-linecap="round"/>
<path d="M25.4375 33.6875L22 30.25L18.5625 33.6875" stroke="#34D0FF" stroke-width="2" stroke-miterlimit="10" stroke-linecap="round"/>
<path d="M36.2272 13.0864L7.66504 30.947" stroke="#FFD089" stroke-width="2" stroke-miterlimit="10" stroke-linecap="round"/>
<path d="M32.6559 11.2651L31.5635 16.002L36.301 17.0944" stroke="#34D0FF" stroke-width="2" stroke-miterlimit="10" stroke-linecap="round"/>
<path d="M27.9928 14.1816L26.9004 18.9185L31.638 20.0103" stroke="#34D0FF" stroke-width="2" stroke-miterlimit="10" stroke-linecap="round"/>
<path d="M11.819 32.4035L12.9107 27.6667L8.17383 26.5742" stroke="#34D0FF" stroke-width="2" stroke-miterlimit="10" stroke-linecap="round"/>
<path d="M16.482 29.4873L17.5738 24.7504L12.8369 23.6587" stroke="#34D0FF" stroke-width="2" stroke-miterlimit="10" stroke-linecap="round"/>
<path d="M7.73828 13.0864L36.3012 30.947" stroke="#FFD089" stroke-width="2" stroke-miterlimit="10" stroke-linecap="round"/>
<path d="M11.3095 11.2651L12.4019 16.002L7.66504 17.0944" stroke="#34D0FF" stroke-width="2" stroke-miterlimit="10" stroke-linecap="round"/>
<path d="M15.9726 14.1816L17.065 18.9185L12.3281 20.0103" stroke="#34D0FF" stroke-width="2" stroke-miterlimit="10" stroke-linecap="round"/>
<path d="M32.1464 32.4035L31.0547 27.6667L35.7916 26.5742" stroke="#34D0FF" stroke-width="2" stroke-miterlimit="10" stroke-linecap="round"/>
<path d="M27.4834 29.4873L26.3916 24.7504L31.1285 23.6587" stroke="#34D0FF" stroke-width="2" stroke-miterlimit="10" stroke-linecap="round"/>
</svg>
