<svg width="40" height="40" viewBox="0 0 40 40" fill="none" xmlns="http://www.w3.org/2000/svg">
<path d="M22.875 35.4187V30.8154C27.9614 29.009 31.625 24.205 31.625 18.5C31.625 12.797 27.9615 7.99093 22.8749 6.1846V1.5812C30.4181 3.52842 36 10.3523 36 18.5C36 26.6476 30.4181 33.4736 22.875 35.4187ZM18.5 35.991L9.74997 27.2456H3.18747C1.97832 27.2456 1 26.2676 1 25.0593V11.9409C1 10.7323 1.97846 9.75453 3.18747 9.75453H9.74997L18.5 1.00904C18.5 1.00904 20.6874 0.735734 20.6874 3.19538V33.8046C20.6875 36.2643 18.5 35.991 18.5 35.991ZM16.3125 9.75447L11.9375 14.1272H5.37495V22.8727H11.9375L16.3125 27.2456V9.75447ZM29.4374 18.5C29.4374 22.5695 26.6432 25.9602 22.875 26.9358V22.2662C24.1781 21.5083 25.0624 20.1141 25.0624 18.4999C25.0624 16.8858 24.178 15.4915 22.875 14.7335V10.064C26.6433 11.0398 29.4374 14.4305 29.4374 18.5Z" fill="#FFD089"/>
</svg>
