<svg width="40" height="40" viewBox="0 0 40 40" fill="none" xmlns="http://www.w3.org/2000/svg">
<path d="M20.7686 4.14403C20.4763 4.02094 20.1558 3.97555 19.8396 4.01248C19.5235 4.04941 19.2231 4.16735 18.9691 4.35426L10.3676 10.9766H3.79948C3.32223 10.9766 2.86452 11.1611 2.52705 11.4897C2.18959 11.8183 2 12.2639 2 12.7285V23.2401C2 23.7048 2.18959 24.1504 2.52705 24.4789C2.86452 24.8075 3.32223 24.992 3.79948 24.992H10.3676L18.8791 31.6144C19.1957 31.8617 19.5889 31.9975 19.9948 31.9998C20.2636 32.0041 20.5293 31.9439 20.7686 31.8246C21.0748 31.6826 21.3335 31.4592 21.515 31.1803C21.6965 30.9013 21.7933 30.5781 21.7943 30.2478V5.72077C21.7933 5.39055 21.6965 5.06732 21.515 4.78835C21.3335 4.50938 21.0748 4.28602 20.7686 4.14403ZM18.1953 26.6038L12.1131 21.8736C11.7965 21.6263 11.4033 21.4905 10.9974 21.4882H5.59896V14.4804H10.9974C11.4033 14.4781 11.7965 14.3423 12.1131 14.095L18.1953 9.36479V26.6038ZM34.2287 17.9843L37.4677 14.8483C37.6355 14.685 37.7686 14.4911 37.8594 14.2777C37.9502 14.0642 37.9969 13.8355 37.9969 13.6045C37.9969 13.3735 37.9502 13.1447 37.8594 12.9313C37.7686 12.7179 37.6355 12.5239 37.4677 12.3606C37.2999 12.1973 37.1007 12.0677 36.8815 11.9793C36.6623 11.8909 36.4274 11.8454 36.1901 11.8454C35.9528 11.8454 35.7179 11.8909 35.4986 11.9793C35.2794 12.0677 35.0802 12.1973 34.9125 12.3606L31.6914 15.5141L28.4703 12.3606C28.1315 12.0307 27.6719 11.8454 27.1927 11.8454C26.7135 11.8454 26.2539 12.0307 25.9151 12.3606C25.5762 12.6905 25.3859 13.1379 25.3859 13.6045C25.3859 14.071 25.5762 14.5184 25.9151 14.8483L29.1541 17.9843L25.9151 21.1203C25.7464 21.2831 25.6125 21.4769 25.5212 21.6904C25.4298 21.9039 25.3828 22.1329 25.3828 22.3641C25.3828 22.5954 25.4298 22.8244 25.5212 23.0379C25.6125 23.2514 25.7464 23.4452 25.9151 23.608C26.0823 23.7722 26.2814 23.9026 26.5007 23.9915C26.7199 24.0804 26.9551 24.1262 27.1927 24.1262C27.4302 24.1262 27.6655 24.0804 27.8847 23.9915C28.104 23.9026 28.303 23.7722 28.4703 23.608L31.6914 20.4545L34.9125 23.608C35.0797 23.7722 35.2788 23.9026 35.4981 23.9915C35.7173 24.0804 35.9525 24.1262 36.1901 24.1262C36.4276 24.1262 36.6628 24.0804 36.8821 23.9915C37.1014 23.9026 37.3004 23.7722 37.4677 23.608C37.6364 23.4452 37.7703 23.2514 37.8616 23.0379C37.953 22.8244 38 22.5954 38 22.3641C38 22.1329 37.953 21.9039 37.8616 21.6904C37.7703 21.4769 37.6364 21.2831 37.4677 21.1203L34.2287 17.9843Z" fill="#FFD089"/>
</svg>
