<svg width="30" height="30" viewBox="0 0 30 30" fill="none" xmlns="http://www.w3.org/2000/svg">
<path d="M18.2942 21.9627C19.2961 21.5306 20.3806 21.3234 21.4713 21.3558C22.5619 21.3882 23.6322 21.6594 24.6067 22.1502L26.8117 23.259L26.9242 23.3215C27.186 23.4876 27.3767 23.745 27.4593 24.0438C27.5419 24.3426 27.5105 24.6615 27.3713 24.9384C27.232 25.2154 26.9948 25.4308 26.7056 25.5427C26.4165 25.6546 26.0961 25.655 25.8067 25.544L25.6892 25.4927L23.4842 24.3827C22.8359 24.0559 22.1238 23.8753 21.3981 23.8537C20.6724 23.8321 19.9508 23.97 19.2842 24.2577L19.0167 24.3827L18.3579 24.714C17.3833 25.205 16.3128 25.4763 15.2219 25.5087C14.131 25.5411 13.0463 25.3338 12.0442 24.9015L11.6442 24.714L10.9842 24.3827C10.3359 24.0559 9.62377 23.8753 8.89807 23.8537C8.17238 23.8321 7.45078 23.97 6.78419 24.2577L6.51669 24.3827L4.31169 25.4927C4.01582 25.6386 3.67427 25.6616 3.36149 25.5568C3.04871 25.4519 2.79007 25.2276 2.64195 24.9329C2.49382 24.6381 2.46823 24.2967 2.57074 23.9832C2.67325 23.6696 2.89555 23.4093 3.18919 23.259L5.39419 22.1502L5.79419 21.9627C6.79611 21.5306 7.8806 21.3234 8.97125 21.3558C10.0619 21.3882 11.1322 21.6594 12.1067 22.1502L12.7667 22.4815L13.0342 22.6052C13.7007 22.8931 14.4222 23.0312 15.1479 23.0098C15.8736 22.9884 16.5858 22.8081 17.2342 22.4815L17.8942 22.1502L18.2942 21.9627ZM18.2942 16.304C19.2961 15.8718 20.3806 15.6646 21.4713 15.697C22.5619 15.7294 23.6322 16.0006 24.6067 16.4915L26.8117 17.599L26.9242 17.6615C27.186 17.8276 27.3767 18.085 27.4593 18.3838C27.5419 18.6826 27.5105 19.0015 27.3713 19.2784C27.232 19.5554 26.9948 19.7708 26.7056 19.8827C26.4165 19.9946 26.0961 19.995 25.8067 19.884L25.6892 19.834L23.4842 18.7227C22.8359 18.3959 22.1238 18.2153 21.3981 18.1937C20.6724 18.1721 19.9508 18.31 19.2842 18.5977L19.0167 18.7227L18.3579 19.0552C17.3833 19.5462 16.3128 19.8175 15.2219 19.8499C14.131 19.8823 13.0463 19.675 12.0442 19.2427L11.6442 19.0552L10.9842 18.724C10.3359 18.3972 9.62377 18.2166 8.89807 18.195C8.17238 18.1734 7.45078 18.3113 6.78419 18.599L6.51669 18.724L4.31169 19.8327C4.01582 19.9786 3.67427 20.0016 3.36149 19.8968C3.04871 19.7919 2.79007 19.5676 2.64195 19.2729C2.49382 18.9781 2.46823 18.6367 2.57074 18.3232C2.67325 18.0096 2.89555 17.7493 3.18919 17.599L5.39419 16.4902L5.79419 16.304C6.79611 15.8718 7.8806 15.6646 8.97125 15.697C10.0619 15.7294 11.1322 16.0006 12.1067 16.4915L12.7667 16.8227L13.0342 16.9477C13.7008 17.2354 14.4224 17.3733 15.1481 17.3517C15.8738 17.3301 16.5859 17.1495 17.2342 16.8227L17.8942 16.4902L18.2942 16.304ZM18.2942 10.6452C19.2961 10.2131 20.3806 10.0059 21.4713 10.0383C22.5619 10.0707 23.6322 10.3419 24.6067 10.8327L26.8117 11.9402L26.9242 12.0027C27.186 12.1688 27.3767 12.4263 27.4593 12.7251C27.5419 13.0239 27.5105 13.3427 27.3713 13.6197C27.232 13.8967 26.9948 14.112 26.7056 14.2239C26.4165 14.3358 26.0961 14.3363 25.8067 14.2252L25.6892 14.174L23.4842 13.064C22.8357 12.7376 22.1235 12.5574 21.3978 12.5363C20.6721 12.5151 19.9506 12.6534 19.2842 12.9415L19.0167 13.064L18.3579 13.3965C17.3833 13.8875 16.3128 14.1588 15.2219 14.1912C14.131 14.2236 13.0463 14.0163 12.0442 13.584L11.6442 13.3965L10.9842 13.064C10.3357 12.7376 9.62349 12.5574 8.89779 12.5363C8.1721 12.5151 7.4506 12.6534 6.78419 12.9415L6.51669 13.064L4.31169 14.174C4.01582 14.3199 3.67427 14.3429 3.36149 14.238C3.04871 14.1331 2.79007 13.9089 2.64195 13.6141C2.49382 13.3194 2.46823 12.978 2.57074 12.6644C2.67325 12.3509 2.89555 12.0905 3.18919 11.9402L5.39419 10.8315L5.79419 10.644C6.79611 10.2118 7.8806 10.0046 8.97125 10.037C10.0619 10.0694 11.1322 10.3406 12.1067 10.8315L12.7667 11.164L13.0342 11.289C13.7008 11.5766 14.4224 11.7145 15.1481 11.6929C15.8738 11.6713 16.5859 11.4908 17.2342 11.164L17.8942 10.8315L18.2942 10.6452ZM18.2942 4.98521C19.2961 4.55307 20.3806 4.34589 21.4713 4.37829C22.5619 4.41069 23.6322 4.68186 24.6067 5.17271L26.8117 6.28146L26.9242 6.34396C27.1912 6.51803 27.3817 6.78744 27.4568 7.0972C27.532 7.40695 27.486 7.73371 27.3285 8.01076C27.1709 8.28782 26.9135 8.49429 26.6089 8.58804C26.3042 8.68178 25.9753 8.65573 25.6892 8.51521L23.4842 7.40646C22.8359 7.07966 22.1238 6.89909 21.3981 6.8775C20.6724 6.8559 19.9508 6.99379 19.2842 7.28146L19.0167 7.40646L18.3579 7.73646C17.3833 8.22749 16.3128 8.49877 15.2219 8.53117C14.131 8.56356 13.0463 8.35629 12.0442 7.92396L11.6442 7.73646L10.9842 7.40646C10.3359 7.07966 9.62377 6.89909 8.89807 6.8775C8.17238 6.8559 7.45078 6.99379 6.78419 7.28146L6.51669 7.40646L4.31169 8.51521L4.19544 8.56771C3.89505 8.68545 3.56077 8.68249 3.26252 8.55944C2.96426 8.43639 2.72514 8.20277 2.59517 7.90747C2.4652 7.61217 2.45444 7.27804 2.56515 6.97499C2.67587 6.67194 2.89947 6.42344 3.18919 6.28146L5.39419 5.17271L5.79419 4.98521C6.79611 4.55307 7.8806 4.34589 8.97125 4.37829C10.0619 4.41069 11.1322 4.68186 12.1067 5.17271L12.7667 5.50396L13.0342 5.62896C13.7008 5.91662 14.4224 6.05452 15.1481 6.03292C15.8738 6.01132 16.5859 5.83075 17.2342 5.50396L17.8942 5.17271L18.2942 4.98521Z" fill="#ECA15B"/>
</svg>
